<svg xmlns="http://www.w3.org/2000/svg" xmlns:xlink="http://www.w3.org/1999/xlink" width="1920.999" height="940.641" viewBox="0 0 1920.999 940.641">
  <defs>
    <linearGradient id="linear-gradient" y1="1" x2="1" y2="1" gradientUnits="objectBoundingBox">
      <stop offset="0" stop-color="#f1d527"/>
      <stop offset="1" stop-color="#8cc63f"/>
    </linearGradient>
  </defs>
  <rect id="Rectangle_3" data-name="Rectangle 3" width="1920" height="940" transform="translate(0.5)" fill="url(#linear-gradient)"/>
  <path id="Path_1" data-name="Path 1" d="M7285.107,4295.24l11.178,11.965c11.179,11.964,35.133,35.893,57.49,65.8s44.715,65.8,68.669,47.857c22.357-17.946,44.714-89.733,68.668-119.643,22.357-29.911,44.714-17.947,67.072,0,23.954,17.946,46.311,41.875,68.668,29.91,23.954-11.964,46.311-59.821,68.669-53.84s46.311,65.805,68.668,83.752,46.311-5.983,68.668-23.929,44.715-29.911,68.669-47.858c22.357-17.946,44.714-41.875,68.668-47.858,22.358-5.981,44.715,5.983,67.072,17.947,23.954,11.965,46.311,23.929,68.668,5.982,23.955-17.946,46.312-65.8,68.669-77.768s46.311,11.964,68.668,41.875,46.312,65.8,68.669,101.7,44.714,71.787,68.668,59.823c22.356-11.964,44.715-71.787,68.669-83.751,22.356-11.965,44.714,23.928,67.07,17.947,23.954-5.983,46.312-53.84,68.669-53.84,23.954,0,46.312,47.857,68.668,41.875s46.312-65.8,68.669-95.715,46.312-29.911,68.669-35.893,44.714-17.947,68.668,5.982c22.357,23.929,44.715,83.751,68.669,119.644,22.356,35.893,44.714,47.857,67.07,65.8,23.955,17.947,46.313,41.876,68.669,11.964,23.954-29.911,46.312-113.661,68.668-149.554s46.313-23.929,57.49-17.947l11.179,5.982V4510.6H7285.107Z" transform="translate(-7282.772 -3572.36)" fill="rgba(255,255,255,0.2)" stroke="rgba(255,255,255,0.5)" stroke-width="1"/>
  <path id="Subtraction_1" data-name="Subtraction 1" d="M-5280-3295.787H-7200v-154.343l11.2,11.986c1.838,1.968,4.08,4.321,6.249,6.6,6.413,6.732,14.395,15.111,23.311,25.149,10.564,11.893,19.736,23.075,28.04,34.185,2.137,2.858,4.31,5.822,6.412,8.688l.068.093c7.918,10.8,16.107,21.966,24.266,30.221a60.713,60.713,0,0,0,12.316,9.98,30.275,30.275,0,0,0,6.228,2.8,21.283,21.283,0,0,0,6.285.99,19.513,19.513,0,0,0,6.576-1.157,25.484,25.484,0,0,0,6.65-3.664,51.922,51.922,0,0,0,9.132-10.073,147.363,147.363,0,0,0,9.157-14.6c6.116-10.922,12.4-24.188,18.476-37.017l.005-.011c10.358-21.869,21.069-44.482,32.029-58.167a65.793,65.793,0,0,1,7.4-8.417,42,42,0,0,1,7.4-5.656,30.567,30.567,0,0,1,7.4-3.183,27.8,27.8,0,0,1,7.4-1c5.826,0,11.979,1.75,18.81,5.352a120.506,120.506,0,0,1,18.809,12.9c4.031,3.02,8.064,6.247,11.965,9.368l.019.015.008.006c7.72,6.177,15.011,12.011,22.363,16.447a59.94,59.94,0,0,0,10.975,5.343,32.412,32.412,0,0,0,10.888,2.015,25.894,25.894,0,0,0,6.3-.772,27.6,27.6,0,0,0,6.287-2.455c9.889-4.938,19.585-16.074,28.963-26.843l.014-.016c5.94-6.82,12.082-13.872,18.053-19.027a44.685,44.685,0,0,1,8.94-6.222,19.635,19.635,0,0,1,8.908-2.352,15.2,15.2,0,0,1,3.924.516,25.278,25.278,0,0,1,9.594,5.512,74.579,74.579,0,0,1,9.732,10.361c6.523,8.163,13.2,18.63,19.66,28.752l.016.025c4.938,7.738,10.044,15.739,15.018,22.606,5.583,7.707,10.417,13.155,14.779,16.656a29.849,29.849,0,0,0,8.469,4.87,25.114,25.114,0,0,0,8.581,1.5c14.877,0,30.074-12.525,44.769-24.638l.043-.036c2.282-1.881,4.642-3.825,6.938-5.669,12.277-9.855,24.33-17.763,37.091-26.136,10.257-6.73,20.86-13.687,31.708-21.813,5.292-4.248,10.684-8.916,15.9-13.431l.011-.01c8.469-7.334,17.226-14.917,26.013-21.115a109.853,109.853,0,0,1,13.3-8.163,63.544,63.544,0,0,1,13.581-5.231,47.729,47.729,0,0,1,12.332-1.594,59.651,59.651,0,0,1,13.718,1.682,94.691,94.691,0,0,1,13.717,4.435c9.149,3.672,18.444,8.647,27.434,13.458l1.861.931a232.678,232.678,0,0,0,21.376,9.838,76.026,76.026,0,0,0,10.45,3.191,47.362,47.362,0,0,0,10.334,1.2c8.987,0,17.093-3,24.779-9.17,11.332-8.49,22.4-23.785,33.1-38.575l0-.006c5.9-8.154,12-16.586,17.939-23.547a101.078,101.078,0,0,1,8.892-9.319,44.968,44.968,0,0,1,8.871-6.472,25.738,25.738,0,0,1,12.245-3.152,32.513,32.513,0,0,1,14.165,3.593,67.641,67.641,0,0,1,14.257,9.748,143.727,143.727,0,0,1,14.185,14.354c4.354,4.987,8.917,10.683,13.948,17.413,20.934,28.01,44.724,63.244,68.8,101.893l.006.01c9.533,15.305,19.391,31.132,29.222,42.812,5.291,6.287,10.151,10.9,14.858,14.113a34.126,34.126,0,0,0,7.532,3.954,22.419,22.419,0,0,0,7.618,1.4,21.3,21.3,0,0,0,9.564-2.351,35.991,35.991,0,0,0,8.188-6.341,90.326,90.326,0,0,0,8.2-9.569c5.479-7.224,11.1-16.09,16.531-24.664l.008-.013c5.766-9.1,11.728-18.505,17.7-26.264a92.163,92.163,0,0,1,9.017-10.289,37.856,37.856,0,0,1,9.155-6.773,20.122,20.122,0,0,1,9.718-2.464,31.753,31.753,0,0,1,13.062,3.3,129.825,129.825,0,0,1,13.061,7.261,129.75,129.75,0,0,0,13.062,7.262,31.751,31.751,0,0,0,13.063,3.3,20.267,20.267,0,0,0,5.235-.679,29.786,29.786,0,0,0,8.522-3.782,61.179,61.179,0,0,0,8.4-6.448,223.012,223.012,0,0,0,16.508-17.233l0,0c5.841-6.539,11.882-13.3,17.766-18.247a44.023,44.023,0,0,1,8.81-5.969,19.788,19.788,0,0,1,8.788-2.258,21.691,21.691,0,0,1,8.55,1.885,42.183,42.183,0,0,1,8.429,4.958c5.581,4.094,11.16,9.6,16.555,14.934l.007.007c5.17,5.107,10.516,10.388,15.728,14.257a39.7,39.7,0,0,0,7.8,4.667,19.389,19.389,0,0,0,7.778,1.766,15.306,15.306,0,0,0,3.955-.519,20.362,20.362,0,0,0,5.516-2.5,37.611,37.611,0,0,0,5.569-4.384,89.864,89.864,0,0,0,11.258-13.321c7.549-10.548,15.25-24.09,22.7-37.187l0-.008c7.858-13.816,15.983-28.1,23.753-38.5,18.526-24.784,38.108-29.064,57.046-33.2l.013,0c3.869-.846,7.869-1.721,11.74-2.756,3.161-.846,6.376-1.827,9.486-2.777l.01,0c8.967-2.738,18.239-5.569,27.52-5.569a39.683,39.683,0,0,1,15.7,3.1,44.381,44.381,0,0,1,7.986,4.421,59.25,59.25,0,0,1,8.1,6.824,101.24,101.24,0,0,1,9.578,12.262c3.01,4.427,6.152,9.531,9.606,15.6,6.417,11.279,13.017,24.38,19.4,37.05l.005.01,0,.008c9.777,19.407,19.887,39.474,30.21,54.942a183.768,183.768,0,0,0,13.44,18.942,161.367,161.367,0,0,0,13.44,14.626c8.959,8.63,18.068,15.454,26.878,22.054l0,0c4.4,3.3,8.958,6.71,13.437,10.305,2.83,2.12,5.674,4.353,8.426,6.513l.038.03,0,0c6.491,5.1,12.623,9.908,18.812,13.573a50.994,50.994,0,0,0,9.236,4.417,27.679,27.679,0,0,0,9.153,1.667c8.413,0,15.979-4.65,23.129-14.217a105.831,105.831,0,0,0,9.771-15.082c3.042-5.521,6.188-11.925,9.617-19.58,6.368-14.21,12.721-30.564,18.866-46.379l.016-.04c5.031-12.947,10.233-26.334,15.312-38.182,5.69-13.272,10.667-23.274,15.217-30.578a77.42,77.42,0,0,1,9.083-12.03,47.244,47.244,0,0,1,9.046-7.622,33.685,33.685,0,0,1,8.8-4,30.509,30.509,0,0,1,8.344-1.158c9.574,0,17.87,4.44,22.327,6.826l11.2,5.993v226.268Z" transform="translate(7200.5 4235.929)" fill="rgba(255,255,255,0.2)" stroke="rgba(255,255,255,0.5)" stroke-width="1"/>
</svg>
