<svg xmlns="http://www.w3.org/2000/svg" width="228.667" height="136.017" viewBox="0 0 228.667 136.017">
  <g id="Group_1" data-name="Group 1" transform="translate(-8348.326 -2166.052)">
    <path id="Path_1" data-name="Path 1" d="M8421.641,2279.934h2.278v21.64h-2.278Z" fill="#eee"/>
    <path id="Path_2" data-name="Path 2" d="M8373.018,2292.405v-12.468h2.292v12.376c0,5.161,2.417,7.524,6.63,7.524,4.243,0,6.659-2.363,6.659-7.524v-12.376h2.231v12.468c0,6.249-3.345,9.484-8.891,9.484S8373.018,2298.654,8373.018,2292.405Z" fill="#eee"/>
    <path id="Path_3" data-name="Path 3" d="M8428.508,2290.755c0-6.3,4.96-11.006,11.7-11.006,6.677,0,11.668,4.668,11.668,11.006s-4.991,11.006-11.668,11.006C8433.466,2301.761,8428.508,2297.061,8428.508,2290.755Zm21.012,0c0-5.162-3.974-8.966-9.314-8.966-5.372,0-9.377,3.8-9.377,8.966s4,8.966,9.377,8.966C8445.546,2299.721,8449.52,2295.919,8449.52,2290.755Z" fill="#eee"/>
    <path id="Path_4" data-name="Path 4" d="M8395.749,2279.934h9.06c7.12,0,11.92,4.451,11.92,10.821s-4.8,10.821-11.92,10.821h-9.06Zm8.933,19.662c5.913,0,9.729-3.647,9.729-8.841s-3.815-8.841-9.729-8.841H8398.1V2299.6Z" fill="#eee"/>
    <path id="Path_5" data-name="Path 5" d="M8365.842,2295.794h-12.4l-2.67,5.782h-2.448l10.173-21.64h2.321l10.173,21.64h-2.479Zm-.84-1.855-5.341-11.624-5.341,11.624Z" fill="#eee"/>
    <path id="Path_6" data-name="Path 6" d="M8456.762,2279.934h7.5v15.983h10.046v5.657h-17.547v-21.64Z" fill="#eee"/>
    <path id="Path_7" data-name="Path 7" d="M8494.878,2296.072v5.5h-18.5v-21.64h18.088v5.5H8483.75v2.536h9.411v5.254h-9.411v2.844h11.128Z" fill="#eee"/>
    <path id="Path_8" data-name="Path 8" d="M8517.641,2301.576l-.062-9.862-4.832,7.914h-3.306l-4.831-7.574v9.522h-6.835v-21.64h6.168l7.249,11.532,7.057-11.532h6.167l.063,21.64Z" fill="#eee"/>
    <path id="Path_9" data-name="Path 9" d="M8527.208,2290.755c0-6.553,5.311-11.314,12.557-11.314s12.556,4.761,12.556,11.314-5.31,11.314-12.556,11.314S8527.208,2297.308,8527.208,2290.755Zm17.55,0c0-3.369-2.226-5.409-4.99-5.409s-4.99,2.04-4.99,5.409,2.225,5.41,4.99,5.41S8544.758,2294.124,8544.758,2290.755Z" fill="#eee"/>
    <path id="Path_10" data-name="Path 10" d="M8576.993,2279.934v21.64h-6.167l-8.456-9.83v9.83h-7.312v-21.64h6.167l8.456,9.83v-9.83Z" fill="#eee"/>
  </g>
  <g id="Group_4" data-name="Group 4" transform="translate(-8348.326 -2166.052)">
    <g id="Group_3" data-name="Group 3">
      <g id="Group_2" data-name="Group 2">
        <path id="Path_11" data-name="Path 11" d="M8452.508,2168.281c5.5,4.217,5,14.114,5,14.114s-9.418,3.062-14.918-1.155-5-14.114-5-14.114S8447.007,2164.064,8452.508,2168.281Z" fill="#eee"/>
        <path id="Path_12" data-name="Path 12" d="M8459.223,2240.851a27.055,27.055,0,0,1-27.013-27.034,1.522,1.522,0,1,1,3.045,0,23.969,23.969,0,1,0,47.938,0,1.522,1.522,0,1,1,3.045,0A27.054,27.054,0,0,1,8459.223,2240.851Z" fill="#eee"/>
        <path id="Path_13" data-name="Path 13" d="M8437.849,2216.9h-4.067a1.524,1.524,0,0,1,0-3.047h4.067a1.524,1.524,0,0,1,0,3.047Z" fill="#eee"/>
        <path id="Path_14" data-name="Path 14" d="M8484.408,2216.9h-4.422a1.524,1.524,0,0,1,0-3.047h4.422a1.524,1.524,0,0,1,0,3.047Z" fill="#eee"/>
        <path id="Path_15" data-name="Path 15" d="M8458.917,2258.422a1.523,1.523,0,0,1-1.522-1.524v-17.57a1.523,1.523,0,1,1,3.046,0v17.57A1.523,1.523,0,0,1,8458.917,2258.422Z" fill="#eee"/>
        <path id="Path_16" data-name="Path 16" d="M8477.515,2258.421H8439.54a1.524,1.524,0,0,1,0-3.048h37.975a1.524,1.524,0,0,1,0,3.048Z" fill="#eee"/>
        <path id="Path_17" data-name="Path 17" d="M8462.365,2184.44l-.133.835-.639,4.022-.013.088a2.435,2.435,0,0,1-4.869,0l-.778-4.116-.157-.831c0-1.342,2.025-2.3,3.37-2.3h.052a4.171,4.171,0,0,1,2.059.644A2.08,2.08,0,0,1,8462.365,2184.44Z" fill="#eee"/>
      </g>
    </g>
    <path id="Path_18" data-name="Path 18" d="M8475.958,2217.072h-9.681a1.692,1.692,0,0,1,0-3.384h10.687a27.156,27.156,0,0,0,.627-4.622h-11.315a1.693,1.693,0,0,1,0-3.385h11.283a26.612,26.612,0,0,0-.726-4.619H8466.28a1.693,1.693,0,0,1,0-3.385h9.466c-2.573-6.429-7.556-11.152-13.51-12.4a15.4,15.4,0,0,0-3.085-.327h-.076a15.513,15.513,0,0,0-3.136.322c-5.967,1.242-10.959,5.969-13.534,12.406h9.458a1.693,1.693,0,0,1,0,3.385h-10.547a26.486,26.486,0,0,0-.727,4.62h11.273a1.692,1.692,0,0,1,0,3.383h-11.308a27.194,27.194,0,0,0,.627,4.623h10.682a1.692,1.692,0,0,1,0,3.384h-9.677c2.622,7.022,8.085,12.124,14.59,13.1a14.822,14.822,0,0,0,2.3.175h.076a15.6,15.6,0,0,0,2.529-.224c6.37-1.093,11.7-6.145,14.279-13.056Z" fill="#eee"/>
  </g>
</svg>
