<svg width="20" height="21" viewBox="0 0 20 21" fill="none" xmlns="http://www.w3.org/2000/svg">
<path d="M0 3C0 2.44772 0.447715 2 1 2H8C8 1.46957 8.21071 0.960859 8.58579 0.585786C8.96086 0.210714 9.46957 0 10 0C10.5304 0 11.0391 0.210714 11.4142 0.585786C11.7893 0.960859 12 1.46957 12 2H19C19.5523 2 20 2.44772 20 3C20 3.55228 19.5523 4 19 4V14C19 14.5523 18.5523 15 18 15H13.25L14.6416 19.7712C14.8208 20.3856 14.36 21 13.72 21C13.2933 21 12.9179 20.7184 12.7984 20.3088L11.25 15H8.75L7.2016 20.3088C7.08213 20.7184 6.70667 21 6.28 21C5.64 21 5.1792 20.3856 5.3584 19.7712L6.75 15H2C1.44772 15 1 14.5523 1 14V4C0.447715 4 0 3.55228 0 3ZM3 4V13H17V4H3ZM9.85 10.85C9.80462 10.8971 9.75028 10.9346 9.69017 10.9604C9.63006 10.9862 9.5654 10.9996 9.5 11C9.36739 11 9.24021 10.9473 9.14645 10.8536C9.05268 10.7598 9 10.6326 9 10.5V6.5C9 6.36739 9.05268 6.24021 9.14645 6.14645C9.24021 6.05268 9.36739 6 9.5 6C9.64 6 9.76 6.06 9.85 6.15L11.25 7.54C11.57 7.86 11.89 8.18 11.89 8.5C11.89 8.82 11.57 9.14 11.25 9.46L9.85 10.85Z" fill="#282827"/>
</svg>
